<svg xmlns="http://www.w3.org/2000/svg" viewBox="0 0 24 24">
    <path fill="#ffffff"
        d="M1.766554,11.87428 C0.985837,11.87428 0.352941,11.271072 0.352941,10.526978 C0.352941,10.155486 0.513879,9.80048 0.797714,9.545873 L11.031157,0.366197 C11.575469,-0.122066 12.424527,-0.122066 12.968838,0.366197 L23.202282,9.545873 C23.7708,10.055849 23.797911,10.908522 23.262835,11.450371 C22.995696,11.720892 22.623217,11.87428 22.233442,11.87428 L21.895289,11.87428 L21.895289,21.305396 C21.895289,22.793585 20.629497,24 19.068063,24 L16.238065,24 C15.06852,24 14.120418,23.051897 14.120418,21.882353 L14.120418,17.263489 L14.120418,17.263489 C14.120418,16.548976 13.534845,15.959594 12.810983,15.919337 L12.706805,15.916187 L11.293191,15.916187 C10.543512,15.916187 9.925122,16.474291 9.882883,17.164197 L9.879578,17.263489 L9.879578,21.882353 C9.879578,23.051897 8.931475,24 7.761931,24 L4.931933,24 L4.931933,24 C3.370499,24 2.104707,22.793585 2.104707,21.305396 L2.104707,11.87428 L1.766554,11.87428 Z" />
</svg>