<svg fill="#ffffff" width="800px" height="800px" viewBox="0 0 24 24"
    xmlns="http://www.w3.org/2000/svg">
    <path
        d="M12.43,4.1a1,1,0,0,0-1,.12L6.65,8H3A1,1,0,0,0,2,9v6a1,1,0,0,0,1,1H6.65l4.73,3.78
     A1,1,0,0,0,12,20a.91.91,0,0,0,.43-.1A1,1,0,0,0,13,19V5A1,1,0,0,0,12.43,4.1Z" />
    <path
        d="M19.66,6.34a1,1,0,0,0-1.42,1.42,6,6,0,0,1-.38,8.84,1,1,0,0,0,.64,1.76,
       1,1,0,0,0,.64-.23,8,8,0,0,0,.52-11.79Z" />
    <path
        d="M16.83,9.17a1,1,0,1,0-1.42,1.42A2,2,0,0,1,16,12a2,2,0,0,1-.71,1.53,
       1,1,0,0,0-.13,1.41,1,1,0,0,0,1.41.12A4,4,0,0,0,18,12,4.06,4.06,0,0,0,16.83,9.17Z" />
</svg>